<?xml version="1.0" standalone="no"?>
<!DOCTYPE svg PUBLIC "-//W3C//DTD SVG 1.1//EN" "http://www.w3.org/Graphics/SVG/1.1/DTD/svg11.dtd" >
<svg xmlns="http://www.w3.org/2000/svg" xmlns:xlink="http://www.w3.org/1999/xlink" version="1.1">
<metadata>
Created by FontForge 20161013 at Sat Mar 23 13:13:28 2013
 By ,,,
Copyright (c) 1989, 1994, 2001 Adobe Systems Incorporated.  All Rights Reserved.
</metadata>
<defs>
<font id="FranklinGothicStd-ExtraCond" horiz-adv-x="352" >
  <font-face 
    font-family="FranklinGothicStd-ExtraCond"
    font-weight="400"
    font-stretch="extra-condensed"
    units-per-em="1000"
    panose-1="2 11 7 6 3 7 2 3 2 4"
    ascent="828"
    descent="-172"
    x-height="502"
    cap-height="712"
    bbox="-78 -250 1000 886"
    underline-thickness="50"
    underline-position="-150"
    unicode-range="U+0020-FB02"
  />
<missing-glyph horiz-adv-x="500" 
d="M0 0v700h500v-700h-500zM250 395l170 255h-340zM280 350l170 -255v510zM80 50h340l-170 255zM50 605v-510l170 255z" />
    <glyph glyph-name="fi" unicode="fi" horiz-adv-x="389" 
d="M46 0v412h-58v90h58v109q0 51 31 80t84 29q20 0 52 -5v-91h-6q-20 0 -30.5 -10t-12.5 -22t-2 -32v-58h51v-90h-51v-412h-116zM248 0v502h116v-502h-116zM248 596v116h116v-116h-116z" />
    <glyph glyph-name="fl" unicode="fl" horiz-adv-x="389" 
d="M46 0v412h-58v90h58v109q0 51 31 80t84 29q20 0 52 -5v-91h-6q-20 0 -30.5 -10t-12.5 -22t-2 -32v-58h51v-90h-51v-412h-116zM248 0v712h116v-712h-116z" />
    <glyph glyph-name=".notdef" horiz-adv-x="500" 
d="M0 0v700h500v-700h-500zM250 395l170 255h-340zM280 350l170 -255v510zM80 50h340l-170 255zM50 605v-510l170 255z" />
    <glyph glyph-name=".null" horiz-adv-x="0" 
 />
    <glyph glyph-name="nonmarkingreturn" horiz-adv-x="333" 
 />
    <glyph glyph-name="space" unicode=" " horiz-adv-x="194" 
 />
    <glyph glyph-name="exclam" unicode="!" horiz-adv-x="260" 
d="M65 0v130h130v-130h-130zM94 212l-35 500h142l-35 -500h-72z" />
    <glyph glyph-name="quotedbl" unicode="&#x22;" horiz-adv-x="332" 
d="M197 432v280h96v-280h-96zM39 432v280h96v-280h-96z" />
    <glyph glyph-name="numbersign" unicode="#" horiz-adv-x="388" 
d="M0 222v60h79l22 149h-72v60h82l32 221h61l-30 -221h78l32 221h64l-32 -221h72v-60h-79l-23 -149h73v-60h-82l-28 -222h-63l29 222h-79l-30 -222h-64l30 222h-72zM165 431l-21 -149h79l22 149h-80z" />
    <glyph glyph-name="dollar" unicode="$" horiz-adv-x="388" 
d="M166 88v213q-70 45 -103 97.5t-33 130.5q0 65 37 120t99 71v60h60v-60q114 -18 130 -148l-78 -21q0 34 -17.5 59.5t-34.5 25.5v-223q55 -37 82.5 -63t46 -68.5t18.5 -102.5q0 -67 -41 -120.5t-106 -66.5v-66h-60v66q-62 7 -102 51.5t-49 108.5l87 21q11 -78 64 -85z
M166 454v182q-5 0 -15.5 -10.5t-20.5 -32t-10 -45.5q0 -61 46 -94zM226 259v-171q51 23 51 79q0 58 -51 92z" />
    <glyph glyph-name="percent" unicode="%" horiz-adv-x="464" 
d="M101 666q-23 0 -23 -129q1 -128 24 -128t24 128q0 72 -5.5 100.5t-19.5 28.5zM18 515v45q0 157 84 160q84 -3 84 -160v-45q0 -157 -84 -160q-84 3 -84 160zM361 303q-23 0 -23 -129q1 -128 24 -128t24 128q0 72 -5.5 100.5t-19.5 28.5zM278 152v45q0 157 84 160
q84 -3 84 -160v-45q0 -157 -84 -160q-84 3 -84 160zM77 0l233 711h74l-231 -711h-76z" />
    <glyph glyph-name="ampersand" unicode="&#x26;" horiz-adv-x="444" 
d="M176 579q0 -40 29 -107q16 21 23 31t15 30t8 40q0 57 -39 57q-36 0 -36 -51zM444 104v-104q-86 0 -136 58q-54 -72 -137 -72q-74 0 -115 54t-41 121q0 108 107 227q-20 44 -29 65t-18 56.5t-9 69.5q0 66 40.5 106.5t106.5 40.5q63 0 99.5 -43t36.5 -101q0 -22 -4 -42
t-8.5 -33t-17 -31.5t-18.5 -26t-25.5 -30t-26.5 -30.5q7 -20 17 -40.5t25.5 -48t21.5 -38.5q17 52 25 115l86 -19q-15 -116 -55 -200q26 -45 75 -54zM252 132l-85 156q-36 -38 -36 -88q0 -38 18.5 -71t53.5 -33q22 0 49 36z" />
    <glyph glyph-name="quotesingle" unicode="'" horiz-adv-x="222" 
d="M63 432v280h96v-280h-96z" />
    <glyph glyph-name="parenleft" unicode="(" horiz-adv-x="296" 
d="M204 743l71 -46q-126 -204 -126 -416t126 -416l-71 -46q-67 94 -113 222.5t-46 239.5t46 239.5t113 222.5z" />
    <glyph glyph-name="parenright" unicode=")" horiz-adv-x="296" 
d="M92 -181l-71 46q126 204 126 416t-126 416l71 46q67 -94 113 -222.5t46 -239.5t-46 -239.5t-113 -222.5z" />
    <glyph glyph-name="asterisk" unicode="*" horiz-adv-x="185" 
d="M9 606v42l57 -6l-32 48l37 20l22 -55l23 57l37 -24l-35 -46l58 6v-42l-58 6l35 -47l-37 -24l-25 57l-23 -55l-38 22l38 47z" />
    <glyph glyph-name="plus" unicode="+" horiz-adv-x="600" 
d="M47 205v96h205v205h96v-205h205v-96h-205v-205h-96v205h-205z" />
    <glyph glyph-name="comma" unicode="," horiz-adv-x="194" 
d="M33 -150l47 150h-48v130h130v-120l-77 -160h-52z" />
    <glyph glyph-name="hyphen" unicode="-" horiz-adv-x="242" 
d="M22 222v96h198v-96h-198z" />
    <glyph glyph-name="period" unicode="." horiz-adv-x="194" 
d="M32 0v130h130v-130h-130z" />
    <glyph glyph-name="slash" unicode="/" horiz-adv-x="296" 
d="M-8 -14l222 740h90l-224 -740h-88z" />
    <glyph glyph-name="zero" unicode="0" horiz-adv-x="388" 
d="M240 356q0 117 -6.5 178.5t-15.5 75.5t-24 14t-24 -14t-15.5 -75.5t-6.5 -178.5t6.5 -178.5t15.5 -75.5t24 -14t24 14t15.5 75.5t6.5 178.5zM364 356q0 -364 -170 -364t-170 364t170 364t170 -364z" />
    <glyph glyph-name="one" unicode="1" horiz-adv-x="278" 
d="M3 0v96h78v473l-78 -13v79q95 41 137 77h57v-616h78v-96h-272z" />
    <glyph glyph-name="two" unicode="2" 
d="M7 0v92q16 27 68 110.5t73.5 122t44 99t22.5 106.5q0 94 -41 94q-46 0 -47 -126l-110 10q0 91 44 151.5t124 60.5q75 0 117.5 -52t42.5 -132q0 -44 -14.5 -91t-42.5 -94t-52.5 -82t-61.5 -83.5t-52 -69.5h206v-116h-321z" />
    <glyph glyph-name="three" unicode="3" 
d="M105 314v96q60 -3 83.5 31t23.5 95q0 88 -46 88q-41 0 -45 -85l-102 10q6 76 45.5 123.5t113.5 47.5q72 0 111 -51t39 -126q0 -132 -99 -170v-2q118 -30 118 -179q0 -95 -50.5 -147.5t-137.5 -52.5q-75 0 -114 48.5t-40 126.5l110 7q3 -86 47 -86q55 0 55 111
q0 65 -23.5 90t-88.5 25z" />
    <glyph glyph-name="four" unicode="4" 
d="M1 176v104l137 432h145v-448h68v-88h-68v-176h-110v176h-172zM173 266v322h-2l-97 -322h99z" />
    <glyph glyph-name="five" unicode="5" 
d="M7 170l116 7q0 -51 10.5 -70t33.5 -19q48 0 48 137q0 64 -13 95.5t-45 31.5q-22 0 -34.5 -11.5t-26.5 -35.5l-80 25l26 382h280l-8 -110h-184l-12 -167q42 21 71 21q69 0 112.5 -53t43.5 -162q0 -129 -51.5 -189t-126.5 -60q-157 0 -160 178z" />
    <glyph glyph-name="six" unicode="6" horiz-adv-x="388" 
d="M356 535l-110 -9q-4 55 -11 76.5t-27 21.5q-30 0 -40 -46.5t-16 -160.5q-1 -16 -1 -24h2q33 50 89 50q50 0 86 -49t36 -152q0 -117 -46.5 -183.5t-120.5 -66.5q-37 0 -65.5 13.5t-54 48t-39.5 103.5t-14 170q0 206 50 299.5t136 93.5q49 0 82.5 -28.5t47 -68t16.5 -88.5z
M154 328v-99q1 -70 10 -105.5t33 -35.5t33.5 29t9.5 110q0 120 -46 120q-26 0 -40 -19z" />
    <glyph glyph-name="seven" unicode="7" horiz-adv-x="315" 
d="M0 596v116h316v-83q-116 -247 -118 -629h-148q9 155 46.5 288t109.5 308h-206z" />
    <glyph glyph-name="eight" unicode="8" horiz-adv-x="370" 
d="M11 172q0 100 104 175q-38 33 -62 82.5t-24 98.5q0 82 42.5 137t121.5 55q65 0 105 -48.5t40 -113.5q0 -55 -21 -93.5t-67 -72.5q53 -55 81 -102t28 -107q0 -75 -45 -133t-134 -58q-79 0 -124 50.5t-45 129.5zM121 172q0 -90 60 -90q25 0 43.5 20t18.5 62q0 28 -14 55
t-26 40t-42 42q-16 -21 -28 -58t-12 -71zM139 566q0 -35 18 -71t44 -55q41 59 41 113q0 29 -12.5 50t-41.5 21q-22 0 -35.5 -18.5t-13.5 -39.5z" />
    <glyph glyph-name="nine" unicode="9" horiz-adv-x="388" 
d="M32 177l110 9q4 -55 11 -76.5t27 -21.5q30 0 40 46.5t16 160.5q1 16 1 24h-2q-33 -50 -89 -50q-50 0 -86 49t-36 152q0 117 46.5 183.5t120.5 66.5q37 0 65.5 -13.5t54 -48t39.5 -103.5t14 -170q0 -206 -50 -299.5t-136 -93.5q-49 0 -82.5 28.5t-47 68t-16.5 88.5z
M234 384v99q-1 70 -10 105.5t-33 35.5t-33.5 -29t-9.5 -110q0 -120 46 -120q26 0 40 19z" />
    <glyph glyph-name="colon" unicode=":" horiz-adv-x="194" 
d="M32 376v130h130v-130h-130zM32 0v130h130v-130h-130z" />
    <glyph glyph-name="semicolon" unicode=";" horiz-adv-x="194" 
d="M32 0v130h130v-120l-77 -160h-52l47 150h-48zM32 376v130h130v-130h-130z" />
    <glyph glyph-name="less" unicode="&#x3c;" horiz-adv-x="600" 
d="M47 213v80l506 221v-95l-383 -166l383 -166v-95z" />
    <glyph glyph-name="equal" unicode="=" horiz-adv-x="600" 
d="M47 312v96h506v-96h-506zM47 98v96h506v-96h-506z" />
    <glyph glyph-name="greater" unicode="&#x3e;" horiz-adv-x="600" 
d="M553 293v-80l-506 -221v95l383 166l-383 166v95z" />
    <glyph glyph-name="question" unicode="?" 
d="M128 211v41q0 98 43 182q3 6 12.5 23t13 24.5t9.5 21t8 26.5t2 27q0 74 -47 74q-53 0 -53 -118l-96 7q0 91 37.5 146t121.5 55q64 0 108.5 -41t44.5 -107q0 -33 -9 -64.5t-15 -43.5t-26 -47q-50 -88 -50 -188v-18h-104zM115 0v130h130v-130h-130z" />
    <glyph glyph-name="at" unicode="@" horiz-adv-x="666" 
d="M244 252q0 -31 18 -52.5t46 -21.5q41 0 70 39.5t29 83.5q0 29 -17.5 48t-44.5 19q-42 0 -71.5 -37t-29.5 -79zM444 431h64l-50 -204q-5 -18 -5 -35q0 -18 13 -18q32 0 60.5 43t28.5 109q0 86 -58 139t-163 53q-82 0 -149.5 -64.5t-67.5 -171.5q0 -106 66 -171t171 -65
q104 0 171 69h66q-40 -62 -103 -95.5t-138 -33.5q-128 0 -216.5 85t-88.5 211q0 131 88.5 213.5t200.5 82.5q123 0 205 -68t82 -168q0 -47 -14 -87t-36 -66.5t-49 -46t-52.5 -28t-46.5 -8.5q-19 0 -31.5 12t-13.5 34h-2q-42 -46 -86 -46q-51 0 -87.5 40t-36.5 95
q0 78 48.5 138.5t123.5 60.5q63 0 94 -53z" />
    <glyph glyph-name="A" unicode="A" horiz-adv-x="388" 
d="M227 262l-38 340h-2l-41 -340h81zM6 0l100 712h188l88 -712h-125l-19 158h-105l-18 -158h-109z" />
    <glyph glyph-name="B" unicode="B" horiz-adv-x="407" 
d="M172 310v-206q56 0 73 23t17 82q0 53 -19 77.5t-71 23.5zM172 608v-188q47 0 64.5 22t17.5 72q0 60 -16 77.5t-66 16.5zM42 0v712h160q71 0 123.5 -43.5t52.5 -136.5q0 -62 -29 -104.5t-87 -54.5v-2q130 -31 130 -173q0 -93 -53.5 -145.5t-130.5 -52.5h-166z" />
    <glyph glyph-name="C" unicode="C" horiz-adv-x="407" 
d="M376 458l-116 -4q0 87 -11.5 124.5t-35.5 37.5q-10 0 -16.5 -3.5t-14 -18.5t-12.5 -42t-8 -76.5t-3 -119.5q0 -116 5.5 -172t16 -72t32.5 -16q30 0 41.5 42t13.5 127l110 -5q0 -55 -5.5 -96.5t-22 -85.5t-52.5 -68t-90 -24q-100 0 -142.5 93t-42.5 277q0 193 50.5 281.5
t134.5 88.5q43 0 75 -16t49.5 -40.5t27.5 -62t13 -71t3 -78.5z" />
    <glyph glyph-name="D" unicode="D" horiz-adv-x="426" 
d="M42 0v712h113q64 0 108.5 -17.5t70 -44.5t39 -76t17.5 -97t4 -121q0 -50 -1.5 -85t-6.5 -75t-14.5 -67t-25.5 -53.5t-39 -41.5t-56 -24.5t-75 -9.5h-134zM172 602v-492q22 0 35 2.5t23.5 14.5t15.5 25t8 46t3.5 65t0.5 94q0 61 -0.5 93.5t-3.5 65t-8 45t-15.5 24.5
t-23.5 14.5t-35 2.5z" />
    <glyph glyph-name="E" unicode="E" 
d="M42 0v712h294v-110h-164v-182h121v-116h-121v-194h171v-110h-301z" />
    <glyph glyph-name="F" unicode="F" horiz-adv-x="333" 
d="M42 0v712h291v-110h-161v-190h119v-116h-119v-296h-130z" />
    <glyph glyph-name="G" unicode="G" horiz-adv-x="407" 
d="M379 458h-116l1 18q0 19 -0.5 28.5t-1.5 29t-4.5 31.5t-8.5 25t-14 19.5t-20 6.5q-18 0 -29 -15.5t-19 -75t-8 -168.5q0 -113 8 -171.5t20 -74t34 -15.5q53 0 53 132h-48v104h158v-332h-55l-18 47q-41 -61 -103 -61q-100 0 -142.5 93t-42.5 277q0 193 50.5 281.5
t134.5 88.5q171 0 171 -222v-46z" />
    <glyph glyph-name="H" unicode="H" horiz-adv-x="426" 
d="M42 0v712h130v-286h82v286h130v-712h-130v302h-82v-302h-130z" />
    <glyph glyph-name="I" unicode="I" horiz-adv-x="204" 
d="M37 0v712h130v-712h-130z" />
    <glyph glyph-name="J" unicode="J" horiz-adv-x="259" 
d="M222 712v-575q0 -81 -33.5 -113t-112.5 -32q-28 0 -70 6v113q21 -3 44 -3q42 0 42 62v542h130z" />
    <glyph glyph-name="K" unicode="K" horiz-adv-x="426" 
d="M42 0v712h130v-298h2l108 298h116l-97 -239l117 -473h-125l-72 319h-2l-47 -112v-207h-130z" />
    <glyph glyph-name="L" unicode="L" 
d="M42 0v712h130v-602h166v-110h-296z" />
    <glyph glyph-name="M" unicode="M" horiz-adv-x="537" 
d="M37 0v712h173l58 -365h2l61 365h169v-712h-116v522h-2l-88 -522h-72l-87 522h-2v-522h-96z" />
    <glyph glyph-name="N" unicode="N" horiz-adv-x="426" 
d="M37 0v712h127l119 -376h2v376h104v-712h-101l-139 431h-2v-431h-110z" />
    <glyph glyph-name="O" unicode="O" horiz-adv-x="426" 
d="M23 356q0 201 49 285.5t141 84.5t141 -84.5t49 -285.5t-49 -285.5t-141 -84.5t-141 84.5t-49 285.5zM165 431v-150q0 -74 6 -116t16 -55.5t26 -13.5t26 13.5t16 55.5t6 116v150q0 74 -6 116t-16 55.5t-26 13.5t-26 -13.5t-16 -55.5t-6 -116z" />
    <glyph glyph-name="P" unicode="P" horiz-adv-x="389" 
d="M173 602v-213h11q42 0 62 23t20 84q0 37 -6 60t-20 32t-25.5 11.5t-31.5 2.5h-10zM42 0v712h130q113 0 168.5 -50t55.5 -163q0 -101 -42 -157.5t-130 -56.5h-52v-285h-130z" />
    <glyph glyph-name="Q" unicode="Q" horiz-adv-x="426" 
d="M23 356q0 201 49 285.5t141 84.5t141 -84.5t49 -285.5q0 -232 -71 -317q15 -35 54 -35q7 0 17 2v-118h-28q-50 0 -84.5 20.5t-53.5 79.5q-7 -2 -24 -2q-92 0 -141 84.5t-49 285.5zM165 431v-150q0 -74 6 -116t16 -55.5t26 -13.5t26 13.5t16 55.5t6 116v150q0 74 -6 116
t-16 55.5t-26 13.5t-26 -13.5t-16 -55.5t-6 -116z" />
    <glyph glyph-name="R" unicode="R" horiz-adv-x="407" 
d="M172 608v-198h26q34 0 50 28.5t16 70.5q0 55 -18.5 77t-53.5 22h-20zM42 0v712h146q206 0 206 -202q0 -53 -18 -102t-58 -72l77 -336h-131l-61 306h-31v-306h-130z" />
    <glyph glyph-name="S" unicode="S" horiz-adv-x="370" 
d="M15 206h116q0 -22 1 -35.5t5.5 -33.5t17 -30.5t32.5 -10.5q29 0 43.5 21.5t14.5 47.5q0 35 -24.5 66t-59 58t-69 58t-59 79t-24.5 106q0 84 44 139t124 55q160 0 165 -217h-116q0 22 -1 35t-5.5 32.5t-16 29.5t-29.5 10q-23 0 -36 -17.5t-13 -47.5q0 -33 24.5 -64
t59 -59.5t69 -60.5t59 -80t24.5 -105q0 -85 -47 -140.5t-132 -55.5q-50 0 -84.5 20t-51.5 54t-24 69.5t-7 76.5z" />
    <glyph glyph-name="T" unicode="T" horiz-adv-x="334" 
d="M102 0v602h-112v110h354v-110h-112v-602h-130z" />
    <glyph glyph-name="U" unicode="U" horiz-adv-x="407" 
d="M37 178v534h130v-551q0 -65 45 -65q48 0 48 65v551h110v-534q0 -101 -42.5 -146.5t-123.5 -45.5q-167 0 -167 192z" />
    <glyph glyph-name="V" unicode="V" horiz-adv-x="370" 
d="M110 0l-106 712h127l61 -500h2l67 500h105l-107 -712h-149z" />
    <glyph glyph-name="W" unicode="W" horiz-adv-x="556" 
d="M99 0l-95 712h118l46 -418h2l62 418h117l57 -418h2l51 418h93l-93 -712h-118l-62 451h-2l-64 -451h-114z" />
    <glyph glyph-name="X" unicode="X" 
d="M-7 0l115 363l-114 349h130l54 -191h2l48 191h111l-106 -331l126 -381h-131l-63 214h-2l-60 -214h-110z" />
    <glyph glyph-name="Y" unicode="Y" horiz-adv-x="334" 
d="M102 0v275l-119 437h129l62 -279h2l66 279h109l-119 -425v-287h-130z" />
    <glyph glyph-name="Z" unicode="Z" horiz-adv-x="315" 
d="M2 0v73l164 529h-150v110h297v-66l-169 -536h164v-110h-306z" />
    <glyph glyph-name="bracketleft" unicode="[" horiz-adv-x="408" 
d="M152 -150v862h218v-84h-114v-694h114v-84h-218z" />
    <glyph glyph-name="backslash" unicode="\" horiz-adv-x="296" 
d="M216 -14l-224 740h90l222 -740h-88z" />
    <glyph glyph-name="bracketright" unicode="]" horiz-adv-x="408" 
d="M256 712v-862h-218v84h114v694h-114v84h218z" />
    <glyph glyph-name="asciicircum" unicode="^" horiz-adv-x="600" 
d="M63 318l193 394h88l193 -394h-97l-141 298l-139 -298h-97z" />
    <glyph glyph-name="underscore" unicode="_" horiz-adv-x="500" 
d="M500 -125h-500v50h500v-50z" />
    <glyph glyph-name="grave" unicode="`" horiz-adv-x="166" 
d="M57 566l-108 136h112l61 -136h-65z" />
    <glyph glyph-name="a" unicode="a" 
d="M137 359l-96 9q0 66 39 104t105 38q45 0 74.5 -12.5t43.5 -35.5t19 -45.5t5 -52.5v-270q0 -39 12 -94h-114l-8 46q-16 -27 -43.5 -40.5t-50.5 -13.5q-55 0 -79 39t-24 89q0 87 52 139.5t139 57.5v57q0 27 -7.5 36.5t-23.5 9.5q-15 0 -25 -11.5t-12.5 -21.5t-5.5 -28z
M211 102v143q-44 -8 -59.5 -33.5t-15.5 -72.5q0 -21 10 -39t31 -18q25 0 34 20z" />
    <glyph glyph-name="b" unicode="b" horiz-adv-x="370" 
d="M30 0v712h116v-238q38 36 80 36q35 0 59.5 -19t42 -78.5t17.5 -159.5q0 -68 -10 -118t-25 -77t-36.5 -42.5t-39 -19.5t-38.5 -4q-61 0 -93 57l-25 -49h-48zM146 415v-294q0 -27 10 -42t24 -15q27 0 34 43.5t7 142.5q0 108 -8 145t-36 37q-23 0 -31 -17z" />
    <glyph glyph-name="c" unicode="c" horiz-adv-x="334" 
d="M325 322l-104 -3q-2 60 -9 83.5t-25 23.5q-20 0 -26 -35.5t-6 -152.5q0 -92 8 -124t29 -32q7 0 13 3t10 10t6.5 13.5t5 19t3.5 19.5t3 23t3 22l89 -3q-1 -40 -6.5 -70.5t-19 -61t-42.5 -47.5t-71 -18q-74 0 -117.5 62t-43.5 197t43.5 197t117.5 62q40 0 67.5 -14.5
t41.5 -43t20.5 -58t9.5 -72.5z" />
    <glyph glyph-name="d" unicode="d" horiz-adv-x="370" 
d="M229 0v40h-2q-15 -17 -23.5 -25t-25.5 -15.5t-39 -7.5q-61 0 -87.5 66t-26.5 194q0 258 124 258q46 0 73 -36h2v238h116v-712h-111zM224 92v324q-9 16 -32 16q-18 0 -26.5 -12t-12.5 -49.5t-4 -117.5q0 -115 7 -146t33 -31q24 0 35 16z" />
    <glyph glyph-name="e" unicode="e" 
d="M334 215h-185v-22q0 -105 45 -105q20 0 33 12.5t16 21.5t12 35l81 -24q-26 -141 -150 -141q-74 0 -117.5 62t-43.5 197t43.5 197t117.5 62q42 0 72.5 -23.5t46 -62t22.5 -78t7 -80.5v-51zM149 305h75v14q0 55 -9 78t-30 23q-20 0 -28 -22t-8 -79v-14z" />
    <glyph glyph-name="f" unicode="f" horiz-adv-x="222" 
d="M46 0v412h-58v90h58v105q0 54 30 83.5t90 29.5q38 0 68 -6v-90h-12q-60 0 -60 -47v-75h68v-90h-68v-412h-116z" />
    <glyph glyph-name="g" unicode="g" horiz-adv-x="334" 
d="M343 562v-102q-16 6 -35 6t-35 -13q34 -42 34 -102q0 -67 -41 -114.5t-107 -47.5q-25 0 -41 5q-11 -6 -11 -23q0 -14 17.5 -23t43.5 -13t57 -13t57 -21.5t43.5 -40t17.5 -67.5q0 -61 -43.5 -102t-137.5 -41q-88 0 -129.5 32t-41.5 65q0 26 14.5 45.5t30.5 28t44 19.5v2
q-30 8 -49.5 27.5t-19.5 48.5q0 57 66 96q-61 42 -61 140q0 63 40 109.5t106 46.5q45 0 78 -24q14 30 42 51t61 25zM247 -23q0 20 -32.5 31.5t-55.5 13.5q-13 -2 -27.5 -7t-29.5 -18t-15 -29q0 -40 79 -40q81 0 81 49zM120 349q0 -88 42 -88q41 0 41 88q0 89 -41 89
q-42 0 -42 -89z" />
    <glyph glyph-name="h" unicode="h" horiz-adv-x="354" 
d="M25 0v711h116v-257h2q54 56 105 56q81 0 81 -104v-406h-116v364q0 50 -33 50q-24 0 -39 -19v-395h-116z" />
    <glyph glyph-name="i" unicode="i" horiz-adv-x="166" 
d="M25 0v502h116v-502h-116zM25 596v116h116v-116h-116z" />
    <glyph glyph-name="j" unicode="j" horiz-adv-x="166" 
d="M141 502v-502q0 -40 -9.5 -68t-23 -43.5t-38.5 -24t-46 -11t-55 -3.5v96q56 0 56 56v500h116zM25 596v116h116v-116h-116z" />
    <glyph glyph-name="k" unicode="k" 
d="M30 0v712h116v-385h2l89 175h96l-80 -152l94 -350h-116l-57 226h-1l-27 -55v-171h-116z" />
    <glyph glyph-name="l" unicode="l" horiz-adv-x="166" 
d="M25 0v712h116v-712h-116z" />
    <glyph glyph-name="m" unicode="m" horiz-adv-x="540" 
d="M25 0v502h116v-50h2q16 23 45.5 40.5t58.5 17.5q60 0 74 -60q43 60 107 60q87 0 87 -99v-411h-116v369q0 45 -33 45q-21 0 -38 -20v-394h-116v373q0 41 -33 41q-24 0 -38 -20v-394h-116z" />
    <glyph glyph-name="n" unicode="n" horiz-adv-x="354" 
d="M25 0v502h116v-48h2q54 56 105 56q81 0 81 -104v-406h-116v364q0 50 -33 50q-24 0 -39 -19v-395h-116z" />
    <glyph glyph-name="o" unicode="o" horiz-adv-x="370" 
d="M345 251q0 -135 -43.5 -197t-116.5 -62t-116.5 62t-43.5 197t43.5 197t116.5 62t116.5 -62t43.5 -197zM221 251q0 76 -3.5 113.5t-10.5 49.5t-22 12t-22 -12t-10.5 -49.5t-3.5 -113.5t3.5 -113.5t10.5 -49.5t22 -12t22 12t10.5 49.5t3.5 113.5z" />
    <glyph glyph-name="p" unicode="p" horiz-adv-x="370" 
d="M141 502v-40h2q15 17 23.5 25t25.5 15.5t39 7.5q61 0 87.5 -66t26.5 -194q0 -258 -124 -258q-46 0 -73 36h-2v-178h-116v652h111zM221 249q0 115 -7 146t-33 31q-17 0 -35 -16v-324q9 -16 32 -16q18 0 26.5 12t12.5 49.5t4 117.5z" />
    <glyph glyph-name="q" unicode="q" horiz-adv-x="370" 
d="M340 502v-652h-116v178q-38 -36 -80 -36q-35 0 -59.5 19t-42 78.5t-17.5 159.5q0 68 10 118t25 77t36.5 42.5t39 19.5t38.5 4q61 0 93 -57l25 49h48zM224 87v294q0 57 -34 57q-27 0 -34 -43.5t-7 -142.5q0 -108 8 -145t36 -37q23 0 31 17z" />
    <glyph glyph-name="r" unicode="r" horiz-adv-x="260" 
d="M25 0v502h116v-88h2q54 87 116 91v-133q-19 6 -45 6q-21 0 -43 -14.5t-30 -31.5v-332h-116z" />
    <glyph glyph-name="s" unicode="s" horiz-adv-x="316" 
d="M286 376l-84 -14q-2 19 -6 31t-15 22.5t-30 10.5q-16 0 -25.5 -13t-9.5 -30q0 -22 19.5 -41.5t47 -36t55 -36.5t47 -53.5t19.5 -75.5q0 -66 -40.5 -107t-107.5 -41q-128 0 -144 146l91 14q6 -42 18 -59t40 -17q18 0 28.5 11.5t10.5 29.5q0 21 -18.5 39.5t-45 35.5t-53 38
t-45 57.5t-18.5 83.5q0 60 39 99.5t99 39.5q58 0 90 -37t38 -97z" />
    <glyph glyph-name="t" unicode="t" horiz-adv-x="259" 
d="M9 412v90h54v183h116v-183h73v-90h-72v-275q0 -43 46 -43q8 0 19 1t14 1v-94q-39 -10 -99 -10q-43 0 -70 22.5t-27 71.5v326h-54z" />
    <glyph glyph-name="u" unicode="u" horiz-adv-x="354" 
d="M329 502v-502h-116v48h-2q-54 -56 -100 -56q-40 0 -63 28.5t-23 75.5v406h116v-364q0 -50 33 -50q24 0 39 19v395h116z" />
    <glyph glyph-name="v" unicode="v" horiz-adv-x="316" 
d="M109 0l-103 502h115l45 -272h2l47 272h95l-97 -502h-104z" />
    <glyph glyph-name="w" unicode="w" horiz-adv-x="446" 
d="M76 0l-70 502h104l30 -266h2l44 266h91l41 -266h2l36 266h84l-75 -502h-98l-44 290h-2l-46 -290h-99z" />
    <glyph glyph-name="x" unicode="x" horiz-adv-x="334" 
d="M9 0l101 255l-94 247h117l40 -122h2l41 122h95l-91 -227l105 -275h-118l-49 153h-2l-51 -153h-96z" />
    <glyph glyph-name="y" unicode="y" horiz-adv-x="314" 
d="M308 502l-92 -494q-16 -88 -54 -123t-115 -35q-14 0 -42 4v94q17 -2 49 -2q27 0 41.5 16.5t14.5 43.5q0 17 -5 37l-96 459h111l51 -264h2l41 264h94z" />
    <glyph glyph-name="z" unicode="z" horiz-adv-x="296" 
d="M20 412v90h270v-67l-155 -345h152v-90h-281v70l152 342h-138z" />
    <glyph glyph-name="braceleft" unicode="{" horiz-adv-x="333" 
d="M318 -78v-72h-83q-51 0 -84.5 36.5t-33.5 85.5v172q0 39 -25 69t-65 30v76q40 0 65 30t25 69v172q0 49 33.5 85.5t84.5 36.5h83v-72h-53q-31 -1 -41.5 -18t-10.5 -48v-169q-2 -106 -96 -123v-2q94 -17 96 -123v-169q0 -31 10.5 -48t41.5 -18h53z" />
    <glyph glyph-name="bar" unicode="|" horiz-adv-x="222" 
d="M63 750h96v-1000h-96v1000z" />
    <glyph glyph-name="braceright" unicode="}" horiz-adv-x="333" 
d="M15 640v72h83q51 0 84.5 -36.5t33.5 -85.5v-172q0 -39 25 -69t65 -30v-76q-40 0 -65 -30t-25 -69v-172q0 -49 -33.5 -85.5t-84.5 -36.5h-83v72h53q31 1 41.5 18t10.5 48v169q2 106 96 123v2q-94 17 -96 123v169q0 31 -10.5 48t-41.5 18h-53z" />
    <glyph glyph-name="asciitilde" unicode="~" horiz-adv-x="600" 
d="M105 170l-36 76q45 86 125 86q33 0 115 -35q74 -33 98 -33q19 0 36.5 12t27 24.5t24.5 35.5l36 -76q-20 -27 -33 -42t-38 -29.5t-54 -14.5q-11 0 -21.5 1.5t-24 7t-19.5 8t-23.5 11t-20.5 10.5q-62 30 -108 30q-51 0 -84 -72z" />
    <glyph glyph-name="uni00A0" unicode="&#xa0;" horiz-adv-x="194" 
 />
    <glyph glyph-name="exclamdown" unicode="&#xa1;" horiz-adv-x="260" 
d="M195 570v-130h-130v130h130zM166 358l35 -500h-142l35 500h72z" />
    <glyph glyph-name="cent" unicode="&#xa2;" horiz-adv-x="388" 
d="M180 -66v61q-78 12 -113 98q-23 61 -23 158q0 236 136 257v60h48v-60q33 -4 55.5 -20t34.5 -43.5t17.5 -55t8.5 -67.5l-104 -3q-2 60 -9 83.5t-25 23.5q-20 0 -26 -35.5t-6 -152.5q0 -92 8 -124t29 -32q7 0 13 3t10 10t6.5 13.5t5 19t3.5 19.5t3 23t3 22l89 -3
q-1 -37 -5.5 -65.5t-16 -57.5t-35.5 -47.5t-59 -23.5v-61h-48z" />
    <glyph glyph-name="sterling" unicode="&#xa3;" horiz-adv-x="388" 
d="M57 0l-49 67q40 25 69 73t29 89q0 27 -16 75h-57v48h42q-1 1 -7 16t-7 18t-7 17t-7.5 20t-6 19t-6.5 21t-5 21t-4 23t-2 22t-1 24q0 80 42 123.5t112 43.5q160 0 167 -202l-104 -10q0 2 -0.5 11.5t-1 15t-1.5 16t-3 18t-4.5 16.5t-6.5 15.5t-8.5 12t-11.5 8.5t-15 3
q-41 0 -41 -90q0 -74 37 -182h115v-48h-107q5 -25 5 -52q0 -38 -12 -70t-24.5 -49t-37.5 -45l2 -2q22 4 32 4t27 -4t28 -4q21 0 40 15.5t28 37.5l101 -46q-23 -48 -57.5 -72.5t-89.5 -24.5q-21 0 -61.5 10t-61.5 10q-28 0 -53 -12z" />
    <glyph glyph-name="currency" unicode="&#xa4;" horiz-adv-x="388" 
d="M6 356q0 72 37 109l-43 44l42 42l42 -43q44 36 110 36t110 -36l42 43l42 -42l-43 -44q37 -37 37 -109q0 -66 -37 -109l43 -44l-40 -40l-43 43q-44 -38 -111 -38t-111 38l-43 -43l-40 40l43 44q-37 43 -37 109zM84 355q0 -47 32.5 -81t79.5 -34q46 0 77 35t31 82
q0 46 -31 80.5t-77 34.5q-47 0 -79.5 -34.5t-32.5 -82.5z" />
    <glyph glyph-name="yen" unicode="&#xa5;" horiz-adv-x="388" 
d="M139 0v156h-122v66h122v54h-122v66h98l-135 370h125l95 -332h2l100 332h106l-133 -370h102v-66h-122v-54h122v-66h-122v-156h-116z" />
    <glyph glyph-name="brokenbar" unicode="&#xa6;" horiz-adv-x="222" 
d="M63 675h96v-350h-96v350zM63 175h96v-350h-96v350z" />
    <glyph glyph-name="section" unicode="&#xa7;" horiz-adv-x="388" 
d="M275 242q0 19 -17 41.5t-35 37t-49.5 38t-40.5 30.5q-1 -1 -5 -5.5t-5 -5.5t-4 -5t-4 -6l-3 -6t-3 -7.5t-1.5 -7.5t-0.5 -9q0 -54 148 -154q20 24 20 59zM39 12h90q0 -90 59 -90q32 0 49 23.5t17 63.5q0 33 -24 60.5t-58 49.5t-67.5 46t-57.5 60.5t-24 81.5q0 65 62 129
q-24 21 -39.5 53t-15.5 63q0 74 47.5 124t121.5 50q80 0 116 -38t36 -100v-28h-90v15q0 79 -55 79q-35 0 -53.5 -24t-18.5 -64q0 -31 24 -59t58 -51t67.5 -48t57.5 -61.5t24 -79.5t-14.5 -71t-43.5 -60q51 -49 51 -116q0 -77 -48.5 -123.5t-123.5 -46.5q-147 0 -147 162z
" />
    <glyph glyph-name="dieresis" unicode="&#xa8;" horiz-adv-x="166" 
d="M-48 566v104h104v-104h-104zM110 566v104h104v-104h-104z" />
    <glyph glyph-name="copyright" unicode="&#xa9;" horiz-adv-x="666" 
d="M30 430q0 131 89.5 213.5t213.5 82.5t213.5 -82.5t89.5 -213.5t-89.5 -213.5t-213.5 -82.5t-213.5 82.5t-89.5 213.5zM558 430q0 98 -66 164t-159 66q-95 0 -160 -65.5t-65 -164.5q0 -98 65.5 -164t159.5 -66t159.5 66t65.5 164zM420 381h68q-9 -58 -50 -92t-98 -34
q-73 0 -118.5 50t-45.5 126q0 78 44 127t118 49q60 0 99.5 -31t48.5 -90h-66q-6 26 -28 40.5t-54 14.5q-38 0 -61 -29.5t-23 -78.5q0 -46 25 -79t61 -33q33 0 54 16t26 44z" />
    <glyph glyph-name="ordfeminine" unicode="&#xaa;" horiz-adv-x="253" 
d="M226 638v-162q0 -32 5 -56h-74l-5 24q-22 -29 -61 -29q-36 0 -52.5 23.5t-16.5 53.5q0 52 34.5 83.5t91.5 33.5v35q0 28 -20 28q-21 0 -28 -37l-62 6q0 39 25.5 62t67.5 23q95 0 95 -88zM148 483v84q-29 -5 -38.5 -20t-9.5 -44q0 -33 26 -33q9 0 15.5 4t6.5 9z" />
    <glyph glyph-name="guillemotleft" unicode="&#xab;" horiz-adv-x="296" 
d="M152 274l54 156h56l-39 -156l39 -164h-56zM34 274l54 156h56l-39 -156l39 -164h-56z" />
    <glyph glyph-name="logicalnot" unicode="&#xac;" horiz-adv-x="600" 
d="M47 312v96h506v-300h-96v204h-410z" />
    <glyph glyph-name="uni00AD" unicode="&#xad;" horiz-adv-x="242" 
d="M22 222v96h198v-96h-198z" />
    <glyph glyph-name="registered" unicode="&#xae;" horiz-adv-x="666" 
d="M30 430q0 131 89.5 213.5t213.5 82.5t213.5 -82.5t89.5 -213.5t-89.5 -213.5t-213.5 -82.5t-213.5 82.5t-89.5 213.5zM108 430q0 -98 65.5 -164t159.5 -66t159.5 66t65.5 164t-66 164t-159 66q-95 0 -160 -65.5t-65 -164.5zM284 407v-138h-66v324h132q118 0 118 -96
q0 -80 -86 -87l86 -141h-76l-79 138h-29zM284 539v-78h64q54 0 54 41q0 37 -58 37h-60z" />
    <glyph glyph-name="macron" unicode="&#xaf;" horiz-adv-x="166" 
d="M-42 595v66h250v-66h-250z" />
    <glyph glyph-name="degree" unicode="&#xb0;" horiz-adv-x="400" 
d="M57 577q0 59 42 101t101 42t101 -42t42 -101t-42 -101t-101 -42t-101 42t-42 101zM117 577q0 -34 24.5 -58.5t58.5 -24.5t58.5 24.5t24.5 58.5t-24.5 58.5t-58.5 24.5t-58.5 -24.5t-24.5 -58.5z" />
    <glyph glyph-name="plusminus" unicode="&#xb1;" horiz-adv-x="600" 
d="M47 270v96h205v140h96v-140h205v-96h-205v-140h-96v140h-205zM47 0v96h506v-96h-506z" />
    <glyph glyph-name="twosuperior" unicode="&#xb2;" horiz-adv-x="278" 
d="M26 288v55q11 16 45 65t48.5 71.5t29.5 58t15 62.5q0 54 -29 54t-33 -72l-78 5q0 53 33 93t85 40q49 0 80.5 -34.5t31.5 -81.5q0 -22 -8 -46.5t-17 -42.5t-29 -44.5t-29.5 -37.5t-33.5 -37.5t-27 -29.5h125v-78h-209z" />
    <glyph glyph-name="threesuperior" unicode="&#xb3;" horiz-adv-x="278" 
d="M91 471v66q40 -1 55.5 17t15.5 52q0 48 -31 48q-27 0 -27 -47l-70 6q4 46 31 76.5t75 30.5q46 0 73 -32.5t27 -77.5q0 -82 -67 -97v-2q80 -19 80 -108q0 -57 -34.5 -90t-91.5 -33q-49 0 -75 30.5t-27 77.5l76 4q0 -46 28 -46q20 0 27 12.5t7 48.5q0 67 -72 64z" />
    <glyph glyph-name="acute" unicode="&#xb4;" horiz-adv-x="166" 
d="M44 566l61 136h112l-108 -136h-65z" />
    <glyph glyph-name="mu" unicode="&#xb5;" horiz-adv-x="354" 
d="M25 -150v652h116v-375q0 -18 9 -28.5t20 -10.5q16 0 29.5 8t13.5 17v389h116v-502h-116v50h-2q-23 -50 -70 -50v-150h-116z" />
    <glyph glyph-name="paragraph" unicode="&#xb6;" horiz-adv-x="600" 
d="M273 -136v498q-97 0 -159.5 42t-62.5 134q0 96 64.5 135t180.5 39h253v-848h-96v770h-84v-770h-96z" />
    <glyph glyph-name="periodcentered" unicode="&#xb7;" horiz-adv-x="194" 
d="M17 284q0 33 23.5 56.5t56.5 23.5t56.5 -23.5t23.5 -56.5t-23.5 -56.5t-56.5 -23.5t-56.5 23.5t-23.5 56.5z" />
    <glyph glyph-name="cedilla" unicode="&#xb8;" horiz-adv-x="166" 
d="M27 -66l34 72h46l-19 -42q30 6 44.5 -14t14.5 -51q0 -30 -14.5 -55t-51.5 -25q-28 0 -45 20.5t-17 45.5h48q0 -23 16 -23q10 0 10 30t-10 30q-6 0 -13 -11z" />
    <glyph glyph-name="onesuperior" unicode="&#xb9;" horiz-adv-x="240" 
d="M29 288v66h49v266l-49 -8v54q63 24 91 46h42v-358h49v-66h-182z" />
    <glyph glyph-name="ordmasculine" unicode="&#xba;" horiz-adv-x="240" 
d="M228 571q0 -81 -29.5 -118.5t-78.5 -37.5t-78.5 37.5t-29.5 118.5q0 155 108 155q49 0 78.5 -37t29.5 -118zM96 571q0 -67 5 -87.5t19 -20.5t19 20.5t5 87.5q0 66 -5 86.5t-19 20.5t-19 -20.5t-5 -86.5z" />
    <glyph glyph-name="guillemotright" unicode="&#xbb;" horiz-adv-x="296" 
d="M144 266l-54 -156h-56l39 156l-39 164h56zM262 266l-54 -156h-56l39 156l-39 164h56z" />
    <glyph glyph-name="onequarter" unicode="&#xbc;" horiz-adv-x="629" 
d="M489 0v100h-116v70l89 257h111v-261h46v-66h-46v-100h-84zM489 166v183h-2l-63 -183h65zM59 354v266l-49 -8v54q63 24 91 46h42v-358h48v-66h-181v66h49zM149 -14l245 740h79l-243 -740h-81z" />
    <glyph glyph-name="onehalf" unicode="&#xbd;" horiz-adv-x="629" 
d="M59 354v266l-49 -8v54q63 24 91 46h42v-358h48v-66h-181v66h49zM390 0v54q11 17 36.5 52.5t39.5 56.5t31 50t24.5 53t7.5 46q0 54 -29 54q-30 0 -31 -70l-78 4q0 53 32 92.5t84 39.5q49 0 80.5 -34.5t31.5 -81.5q0 -22 -8 -46t-16 -41t-28.5 -44t-28.5 -37t-33 -38
t-27 -30v-2h122v-78h-210zM142 -14l245 740h79l-243 -740h-81z" />
    <glyph glyph-name="threequarters" unicode="&#xbe;" horiz-adv-x="629" 
d="M373 100v70l89 257h111v-261h46v-66h-46v-100h-84v100h-116zM489 166v183h-2l-63 -183h65zM77 471v66q40 -1 55.5 17t15.5 52q0 48 -31 48q-7 0 -12 -2.5t-7.5 -5.5t-4.5 -9t-2.5 -9.5t-1 -11t-0.5 -9.5l-70 6q4 46 31.5 76.5t75.5 30.5q46 0 73 -32.5t27 -77.5
q0 -82 -67 -97v-2q80 -19 80 -108q0 -57 -34.5 -90t-91.5 -33q-49 0 -75.5 30.5t-27.5 77.5l76 4q-3 -46 29 -46q20 0 27 12.5t7 48.5q0 67 -72 64zM162 -14l245 740h79l-243 -740h-81z" />
    <glyph glyph-name="questiondown" unicode="&#xbf;" 
d="M224 359v-41q0 -98 -43 -182q-3 -6 -12.5 -23t-13 -24.5t-9.5 -21t-8 -26.5t-2 -27q0 -74 47 -74q53 0 53 118l96 -7q0 -91 -37.5 -146t-121.5 -55q-64 0 -108.5 41t-44.5 107q0 33 9 64.5t15 43.5t26 47q50 88 50 188v18h104zM237 570v-130h-130v130h130z" />
    <glyph glyph-name="Agrave" unicode="&#xc0;" horiz-adv-x="388" 
d="M227 262l-38 340h-2l-41 -340h81zM6 0l100 712h188l88 -712h-125l-19 158h-105l-18 -158h-109zM168 750l-108 136h112l61 -136h-65z" />
    <glyph glyph-name="Aacute" unicode="&#xc1;" horiz-adv-x="388" 
d="M227 262l-38 340h-2l-41 -340h81zM6 0l100 712h188l88 -712h-125l-19 158h-105l-18 -158h-109zM155 750l61 136h112l-108 -136h-65z" />
    <glyph glyph-name="Acircumflex" unicode="&#xc2;" horiz-adv-x="388" 
d="M227 262l-38 340h-2l-41 -340h81zM6 0l100 712h188l88 -712h-125l-19 158h-105l-18 -158h-109zM63 750l88 124h86l88 -124h-99l-33 65l-31 -65h-99z" />
    <glyph glyph-name="Atilde" unicode="&#xc3;" horiz-adv-x="388" 
d="M227 262l-38 340h-2l-41 -340h81zM6 0l100 712h188l88 -712h-125l-19 158h-105l-18 -158h-109zM113 767l-50 10q14 38 31.5 56t53.5 18q13 0 49 -8.5t50 -8.5q20 0 27 17l51 -10q-12 -73 -89 -73q-20 0 -51.5 8.5t-39.5 8.5q-21 0 -32 -18z" />
    <glyph glyph-name="Adieresis" unicode="&#xc4;" horiz-adv-x="388" 
d="M227 262l-38 340h-2l-41 -340h81zM6 0l100 712h188l88 -712h-125l-19 158h-105l-18 -158h-109zM63 750v104h104v-104h-104zM221 750v104h104v-104h-104z" />
    <glyph glyph-name="Aring" unicode="&#xc5;" horiz-adv-x="388" 
d="M227 262l-38 340h-2l-41 -340h81zM6 0l100 712h188l88 -712h-125l-19 158h-105l-18 -158h-109zM119 806q0 31 22 53t53 22t53 -22t22 -53t-22 -53t-53 -22t-53 22t-22 53zM161 806q0 -14 9.5 -23.5t23.5 -9.5t23.5 9.5t9.5 23.5t-9.5 23.5t-23.5 9.5t-23.5 -9.5
t-9.5 -23.5z" />
    <glyph glyph-name="AE" unicode="&#xc6;" horiz-adv-x="519" 
d="M234 628l-73 -355h75v355h-2zM0 0l157 712h362v-110h-153v-182h109v-116h-109v-194h153v-110h-283v169h-98l-34 -169h-104z" />
    <glyph glyph-name="Ccedilla" unicode="&#xc7;" horiz-adv-x="407" 
d="M376 458l-116 -4q0 87 -11.5 124.5t-35.5 37.5q-10 0 -16.5 -3.5t-14 -18.5t-12.5 -42t-8 -76.5t-3 -119.5q0 -116 5.5 -172t16 -72t32.5 -16q30 0 41.5 42t13.5 127l110 -5q0 -40 -2.5 -72.5t-11.5 -69.5t-24.5 -62.5t-43 -44.5t-65.5 -23l-10 -24q30 6 44.5 -14
t14.5 -51q0 -30 -14.5 -55t-51.5 -25q-28 0 -45 20.5t-17 45.5h48q0 -23 16 -23q10 0 10 30t-10 30q-6 0 -13 -11l-43 23l25 54q-87 10 -124.5 102.5t-37.5 265.5q0 193 50.5 281.5t134.5 88.5q43 0 75 -16t49.5 -40.5t27.5 -62t13 -71t3 -78.5z" />
    <glyph glyph-name="Egrave" unicode="&#xc8;" 
d="M42 0v712h294v-110h-164v-182h121v-116h-121v-194h171v-110h-301zM150 750l-108 136h112l61 -136h-65z" />
    <glyph glyph-name="Eacute" unicode="&#xc9;" 
d="M42 0v712h294v-110h-164v-182h121v-116h-121v-194h171v-110h-301zM137 750l61 136h112l-108 -136h-65z" />
    <glyph glyph-name="Ecircumflex" unicode="&#xca;" 
d="M42 0v712h294v-110h-164v-182h121v-116h-121v-194h171v-110h-301zM45 750l88 124h86l88 -124h-99l-33 65l-31 -65h-99z" />
    <glyph glyph-name="Edieresis" unicode="&#xcb;" 
d="M42 0v712h294v-110h-164v-182h121v-116h-121v-194h171v-110h-301zM45 750v104h104v-104h-104zM203 750v104h104v-104h-104z" />
    <glyph glyph-name="Igrave" unicode="&#xcc;" horiz-adv-x="204" 
d="M37 0v712h130v-712h-130zM76 750l-108 136h112l61 -136h-65z" />
    <glyph glyph-name="Iacute" unicode="&#xcd;" horiz-adv-x="204" 
d="M37 0v712h130v-712h-130zM63 750l61 136h112l-108 -136h-65z" />
    <glyph glyph-name="Icircumflex" unicode="&#xce;" horiz-adv-x="204" 
d="M37 0v712h130v-712h-130zM-29 750l88 124h86l88 -124h-99l-33 65l-31 -65h-99z" />
    <glyph glyph-name="Idieresis" unicode="&#xcf;" horiz-adv-x="204" 
d="M37 0v712h130v-712h-130zM-29 750v104h104v-104h-104zM129 750v104h104v-104h-104z" />
    <glyph glyph-name="Eth" unicode="&#xd0;" horiz-adv-x="426" 
d="M42 0v374h-49v78h49v260h113q64 0 108.5 -17.5t70 -44.5t39 -76t17.5 -97t4 -121q0 -50 -1.5 -85t-6.5 -75t-14.5 -67t-25.5 -53.5t-39 -41.5t-56 -24.5t-75 -9.5h-134zM172 374v-264q22 0 35 2.5t23.5 14.5t15.5 25t8 46t3.5 65t0.5 94q0 61 -0.5 93.5t-3.5 65t-8 45
t-15.5 24.5t-23.5 14.5t-35 2.5v-150h54v-78h-54z" />
    <glyph glyph-name="Ntilde" unicode="&#xd1;" horiz-adv-x="426" 
d="M37 0v712h127l119 -376h2v376h104v-712h-101l-139 431h-2v-431h-110zM132 767l-50 10q14 38 31.5 56t53.5 18q13 0 49 -8.5t50 -8.5q20 0 27 17l51 -10q-12 -73 -89 -73q-20 0 -51.5 8.5t-39.5 8.5q-21 0 -32 -18z" />
    <glyph glyph-name="Ograve" unicode="&#xd2;" horiz-adv-x="426" 
d="M23 356q0 201 49 285.5t141 84.5t141 -84.5t49 -285.5t-49 -285.5t-141 -84.5t-141 84.5t-49 285.5zM165 431v-150q0 -74 6 -116t16 -55.5t26 -13.5t26 13.5t16 55.5t6 116v150q0 74 -6 116t-16 55.5t-26 13.5t-26 -13.5t-16 -55.5t-6 -116zM187 750l-108 136h112
l61 -136h-65z" />
    <glyph glyph-name="Oacute" unicode="&#xd3;" horiz-adv-x="426" 
d="M23 356q0 201 49 285.5t141 84.5t141 -84.5t49 -285.5t-49 -285.5t-141 -84.5t-141 84.5t-49 285.5zM165 431v-150q0 -74 6 -116t16 -55.5t26 -13.5t26 13.5t16 55.5t6 116v150q0 74 -6 116t-16 55.5t-26 13.5t-26 -13.5t-16 -55.5t-6 -116zM174 750l61 136h112
l-108 -136h-65z" />
    <glyph glyph-name="Ocircumflex" unicode="&#xd4;" horiz-adv-x="426" 
d="M23 356q0 201 49 285.5t141 84.5t141 -84.5t49 -285.5t-49 -285.5t-141 -84.5t-141 84.5t-49 285.5zM165 431v-150q0 -74 6 -116t16 -55.5t26 -13.5t26 13.5t16 55.5t6 116v150q0 74 -6 116t-16 55.5t-26 13.5t-26 -13.5t-16 -55.5t-6 -116zM82 750l88 124h86l88 -124
h-99l-33 65l-31 -65h-99z" />
    <glyph glyph-name="Otilde" unicode="&#xd5;" horiz-adv-x="426" 
d="M23 356q0 201 49 285.5t141 84.5t141 -84.5t49 -285.5t-49 -285.5t-141 -84.5t-141 84.5t-49 285.5zM165 431v-150q0 -74 6 -116t16 -55.5t26 -13.5t26 13.5t16 55.5t6 116v150q0 74 -6 116t-16 55.5t-26 13.5t-26 -13.5t-16 -55.5t-6 -116zM132 767l-50 10
q14 38 31.5 56t53.5 18q13 0 49 -8.5t50 -8.5q20 0 27 17l51 -10q-12 -73 -89 -73q-20 0 -51.5 8.5t-39.5 8.5q-21 0 -32 -18z" />
    <glyph glyph-name="Odieresis" unicode="&#xd6;" horiz-adv-x="426" 
d="M23 356q0 201 49 285.5t141 84.5t141 -84.5t49 -285.5t-49 -285.5t-141 -84.5t-141 84.5t-49 285.5zM165 431v-150q0 -74 6 -116t16 -55.5t26 -13.5t26 13.5t16 55.5t6 116v150q0 74 -6 116t-16 55.5t-26 13.5t-26 -13.5t-16 -55.5t-6 -116zM82 750v104h104v-104h-104z
M240 750v104h104v-104h-104z" />
    <glyph glyph-name="multiply" unicode="&#xd7;" horiz-adv-x="600" 
d="M134 20l-67 67l166 166l-166 166l67 67l166 -167l166 167l67 -67l-166 -166l166 -166l-67 -67l-166 167z" />
    <glyph glyph-name="Oslash" unicode="&#xd8;" horiz-adv-x="426" 
d="M167 325l92 151q-1 81 -12.5 110.5t-33.5 29.5q-16 0 -26 -13.5t-16 -55.5t-6 -116v-106h2zM259 386l-92 -151q2 -81 13.5 -110t32.5 -29q16 0 26 13.5t16 55.5t6 116v105h-2zM-18 32l65 104q-24 81 -24 220q0 201 49 285.5t141 84.5q100 0 144 -94l46 73l41 -26
l-65 -104q24 -80 24 -219q0 -201 -49 -285.5t-141 -84.5q-100 0 -144 93l-46 -73z" />
    <glyph glyph-name="Ugrave" unicode="&#xd9;" horiz-adv-x="407" 
d="M37 178v534h130v-551q0 -65 45 -65q48 0 48 65v551h110v-534q0 -101 -42.5 -146.5t-123.5 -45.5q-167 0 -167 192zM178 750l-108 136h112l61 -136h-65z" />
    <glyph glyph-name="Uacute" unicode="&#xda;" horiz-adv-x="407" 
d="M37 178v534h130v-551q0 -65 45 -65q48 0 48 65v551h110v-534q0 -101 -42.5 -146.5t-123.5 -45.5q-167 0 -167 192zM165 750l61 136h112l-108 -136h-65z" />
    <glyph glyph-name="Ucircumflex" unicode="&#xdb;" horiz-adv-x="407" 
d="M37 178v534h130v-551q0 -65 45 -65q48 0 48 65v551h110v-534q0 -101 -42.5 -146.5t-123.5 -45.5q-167 0 -167 192zM73 750l88 124h86l88 -124h-99l-33 65l-31 -65h-99z" />
    <glyph glyph-name="Udieresis" unicode="&#xdc;" horiz-adv-x="407" 
d="M37 178v534h130v-551q0 -65 45 -65q48 0 48 65v551h110v-534q0 -101 -42.5 -146.5t-123.5 -45.5q-167 0 -167 192zM73 750v104h104v-104h-104zM231 750v104h104v-104h-104z" />
    <glyph glyph-name="Yacute" unicode="&#xdd;" horiz-adv-x="334" 
d="M102 0v275l-119 437h129l62 -279h2l66 279h109l-119 -425v-287h-130zM128 750l61 136h112l-108 -136h-65z" />
    <glyph glyph-name="Thorn" unicode="&#xde;" horiz-adv-x="389" 
d="M173 460v-213h11q42 0 62 23t20 84q0 37 -6 60t-20 32t-25.5 11.5t-31.5 2.5h-10zM42 0v712h130v-142q113 0 168.5 -50t55.5 -163q0 -101 -42 -157.5t-130 -56.5h-52v-143h-130z" />
    <glyph glyph-name="germandbls" unicode="&#xdf;" horiz-adv-x="370" 
d="M337 533q0 -112 -83 -143v-2q57 -18 81 -74.5t24 -126.5q0 -107 -45.5 -146t-139.5 -41v90q18 1 30 9t18 17.5t9 27.5t3.5 29.5t0.5 33.5q0 130 -59 136v74q45 11 45 102q0 111 -43 111q-13 0 -22.5 -10.5t-9.5 -33.5v-586h-116v572q0 77 39 115.5t109 38.5
q159 0 159 -193z" />
    <glyph glyph-name="agrave" unicode="&#xe0;" 
d="M137 359l-96 9q0 66 39 104t105 38q45 0 74.5 -12.5t43.5 -35.5t19 -45.5t5 -52.5v-270q0 -39 12 -94h-114l-8 46q-16 -27 -43.5 -40.5t-50.5 -13.5q-55 0 -79 39t-24 89q0 87 52 139.5t139 57.5v57q0 27 -7.5 36.5t-23.5 9.5q-15 0 -25 -11.5t-12.5 -21.5t-5.5 -28z
M211 102v143q-44 -8 -59.5 -33.5t-15.5 -72.5q0 -21 10 -39t31 -18q25 0 34 20zM150 566l-108 136h112l61 -136h-65z" />
    <glyph glyph-name="aacute" unicode="&#xe1;" 
d="M137 359l-96 9q0 66 39 104t105 38q45 0 74.5 -12.5t43.5 -35.5t19 -45.5t5 -52.5v-270q0 -39 12 -94h-114l-8 46q-16 -27 -43.5 -40.5t-50.5 -13.5q-55 0 -79 39t-24 89q0 87 52 139.5t139 57.5v57q0 27 -7.5 36.5t-23.5 9.5q-15 0 -25 -11.5t-12.5 -21.5t-5.5 -28z
M211 102v143q-44 -8 -59.5 -33.5t-15.5 -72.5q0 -21 10 -39t31 -18q25 0 34 20zM137 566l61 136h112l-108 -136h-65z" />
    <glyph glyph-name="acircumflex" unicode="&#xe2;" 
d="M137 359l-96 9q0 66 39 104t105 38q45 0 74.5 -12.5t43.5 -35.5t19 -45.5t5 -52.5v-270q0 -39 12 -94h-114l-8 46q-16 -27 -43.5 -40.5t-50.5 -13.5q-55 0 -79 39t-24 89q0 87 52 139.5t139 57.5v57q0 27 -7.5 36.5t-23.5 9.5q-15 0 -25 -11.5t-12.5 -21.5t-5.5 -28z
M211 102v143q-44 -8 -59.5 -33.5t-15.5 -72.5q0 -21 10 -39t31 -18q25 0 34 20zM45 566l88 124h86l88 -124h-99l-33 65l-31 -65h-99z" />
    <glyph glyph-name="atilde" unicode="&#xe3;" 
d="M137 359l-96 9q0 66 39 104t105 38q45 0 74.5 -12.5t43.5 -35.5t19 -45.5t5 -52.5v-270q0 -39 12 -94h-114l-8 46q-16 -27 -43.5 -40.5t-50.5 -13.5q-55 0 -79 39t-24 89q0 87 52 139.5t139 57.5v57q0 27 -7.5 36.5t-23.5 9.5q-15 0 -25 -11.5t-12.5 -21.5t-5.5 -28z
M211 102v143q-44 -8 -59.5 -33.5t-15.5 -72.5q0 -21 10 -39t31 -18q25 0 34 20zM95 583l-50 10q14 38 31.5 56t53.5 18q13 0 49 -8.5t50 -8.5q20 0 27 17l51 -10q-12 -73 -89 -73q-20 0 -51.5 8.5t-39.5 8.5q-21 0 -32 -18z" />
    <glyph glyph-name="adieresis" unicode="&#xe4;" 
d="M137 359l-96 9q0 66 39 104t105 38q45 0 74.5 -12.5t43.5 -35.5t19 -45.5t5 -52.5v-270q0 -39 12 -94h-114l-8 46q-16 -27 -43.5 -40.5t-50.5 -13.5q-55 0 -79 39t-24 89q0 87 52 139.5t139 57.5v57q0 27 -7.5 36.5t-23.5 9.5q-15 0 -25 -11.5t-12.5 -21.5t-5.5 -28z
M211 102v143q-44 -8 -59.5 -33.5t-15.5 -72.5q0 -21 10 -39t31 -18q25 0 34 20zM45 566v104h104v-104h-104zM203 566v104h104v-104h-104z" />
    <glyph glyph-name="aring" unicode="&#xe5;" 
d="M137 359l-96 9q0 66 39 104t105 38q45 0 74.5 -12.5t43.5 -35.5t19 -45.5t5 -52.5v-270q0 -39 12 -94h-114l-8 46q-16 -27 -43.5 -40.5t-50.5 -13.5q-55 0 -79 39t-24 89q0 87 52 139.5t139 57.5v57q0 27 -7.5 36.5t-23.5 9.5q-15 0 -25 -11.5t-12.5 -21.5t-5.5 -28z
M211 102v143q-44 -8 -59.5 -33.5t-15.5 -72.5q0 -21 10 -39t31 -18q25 0 34 20zM116 622q0 31 22 53t53 22t53 -22t22 -53t-22 -53t-53 -22t-53 22t-22 53zM158 622q0 -14 10 -23.5t23 -9.5t23 9.5t10 23.5t-10 23.5t-23 9.5t-23 -9.5t-10 -23.5z" />
    <glyph glyph-name="ae" unicode="&#xe6;" horiz-adv-x="536" 
d="M138 359l-96 9q0 66 39 104t105 38q24 1 50.5 -11t43.5 -31q32 42 86 42q55 0 90 -41.5t46.5 -92.5t11.5 -110v-37h-188v-36q0 -105 48 -105q20 0 33 12.5t16 21.5t12 35l81 -24q-26 -141 -150 -141q-68 3 -121 62q-53 -61 -121 -62q-56 0 -80 39t-24 89q0 87 51.5 137
t138.5 50v67q0 27 -6.5 36.5t-22.5 9.5q-15 0 -25 -11.5t-12.5 -21.5t-5.5 -28zM210 113v121q-66 -12 -66 -79q0 -68 38 -68q10 0 19 7t9 19zM326 307h78v12q0 55 -9 78t-30 23t-30 -22.5t-9 -78.5v-12z" />
    <glyph glyph-name="ccedilla" unicode="&#xe7;" horiz-adv-x="334" 
d="M325 322l-104 -3q-2 60 -9 83.5t-25 23.5q-20 0 -26 -35.5t-6 -152.5q0 -92 8 -124t29 -32q7 0 13 3t10 10t6.5 13.5t5 19t3.5 19.5t3 23t3 22l89 -3q-1 -39 -6 -68.5t-18 -59.5t-39 -47.5t-65 -19.5l-13 -30q30 6 44.5 -14t14.5 -51q0 -30 -14.5 -55t-51.5 -25
q-28 0 -45 20.5t-17 45.5h48q0 -23 16 -23q10 0 10 30t-10 30q-6 0 -13 -11l-43 23l29 62q-127 26 -127 255q0 135 43.5 197t117.5 62q40 0 67.5 -14.5t41.5 -43t20.5 -58t9.5 -72.5z" />
    <glyph glyph-name="egrave" unicode="&#xe8;" 
d="M334 215h-185v-22q0 -105 45 -105q20 0 33 12.5t16 21.5t12 35l81 -24q-26 -141 -150 -141q-74 0 -117.5 62t-43.5 197t43.5 197t117.5 62q42 0 72.5 -23.5t46 -62t22.5 -78t7 -80.5v-51zM149 305h75v14q0 55 -9 78t-30 23q-20 0 -28 -22t-8 -79v-14zM150 566l-108 136
h112l61 -136h-65z" />
    <glyph glyph-name="eacute" unicode="&#xe9;" 
d="M334 215h-185v-22q0 -105 45 -105q20 0 33 12.5t16 21.5t12 35l81 -24q-26 -141 -150 -141q-74 0 -117.5 62t-43.5 197t43.5 197t117.5 62q42 0 72.5 -23.5t46 -62t22.5 -78t7 -80.5v-51zM149 305h75v14q0 55 -9 78t-30 23q-20 0 -28 -22t-8 -79v-14zM137 566l61 136h112
l-108 -136h-65z" />
    <glyph glyph-name="ecircumflex" unicode="&#xea;" 
d="M334 215h-185v-22q0 -105 45 -105q20 0 33 12.5t16 21.5t12 35l81 -24q-26 -141 -150 -141q-74 0 -117.5 62t-43.5 197t43.5 197t117.5 62q42 0 72.5 -23.5t46 -62t22.5 -78t7 -80.5v-51zM149 305h75v14q0 55 -9 78t-30 23q-20 0 -28 -22t-8 -79v-14zM45 566l88 124h86
l88 -124h-99l-33 65l-31 -65h-99z" />
    <glyph glyph-name="edieresis" unicode="&#xeb;" 
d="M334 215h-185v-22q0 -105 45 -105q20 0 33 12.5t16 21.5t12 35l81 -24q-26 -141 -150 -141q-74 0 -117.5 62t-43.5 197t43.5 197t117.5 62q42 0 72.5 -23.5t46 -62t22.5 -78t7 -80.5v-51zM149 305h75v14q0 55 -9 78t-30 23q-20 0 -28 -22t-8 -79v-14zM45 566v104h104
v-104h-104zM203 566v104h104v-104h-104z" />
    <glyph glyph-name="igrave" unicode="&#xec;" horiz-adv-x="166" 
d="M25 0v502h116v-502h-116zM57 566l-108 136h112l61 -136h-65z" />
    <glyph glyph-name="iacute" unicode="&#xed;" horiz-adv-x="166" 
d="M25 0v502h116v-502h-116zM44 566l61 136h112l-108 -136h-65z" />
    <glyph glyph-name="icircumflex" unicode="&#xee;" horiz-adv-x="166" 
d="M25 0v502h116v-502h-116zM-48 566l88 124h86l88 -124h-99l-33 65l-31 -65h-99z" />
    <glyph glyph-name="idieresis" unicode="&#xef;" horiz-adv-x="166" 
d="M25 0v502h116v-502h-116zM-48 566v104h104v-104h-104zM110 566v104h104v-104h-104z" />
    <glyph glyph-name="eth" unicode="&#xf0;" horiz-adv-x="370" 
d="M87 535l-41 46l75 44q-23 17 -56 34l66 75q69 -43 84 -58l82 47l41 -47l-81 -45q55 -73 71.5 -161.5t16.5 -218.5q0 -135 -43.5 -197t-116.5 -62t-116.5 62t-43.5 197q0 119 39.5 182t91.5 63q43 0 62 -18l2 2q-15 62 -51 101zM221 251q0 67 -4 102.5t-11 47t-19 11.5
q-16 0 -23 -10t-11 -44.5t-4 -106.5q0 -76 3.5 -113.5t10.5 -49.5t22 -12t22 12t10.5 49.5t3.5 113.5z" />
    <glyph glyph-name="ntilde" unicode="&#xf1;" horiz-adv-x="354" 
d="M25 0v502h116v-48h2q54 56 105 56q81 0 81 -104v-406h-116v364q0 50 -33 50q-24 0 -39 -19v-395h-116zM96 583l-50 10q14 38 31.5 56t53.5 18q13 0 49 -8.5t50 -8.5q20 0 27 17l51 -10q-12 -73 -89 -73q-20 0 -51.5 8.5t-39.5 8.5q-21 0 -32 -18z" />
    <glyph glyph-name="ograve" unicode="&#xf2;" horiz-adv-x="370" 
d="M345 251q0 -135 -43.5 -197t-116.5 -62t-116.5 62t-43.5 197t43.5 197t116.5 62t116.5 -62t43.5 -197zM221 251q0 76 -3.5 113.5t-10.5 49.5t-22 12t-22 -12t-10.5 -49.5t-3.5 -113.5t3.5 -113.5t10.5 -49.5t22 -12t22 12t10.5 49.5t3.5 113.5zM159 566l-108 136h112
l61 -136h-65z" />
    <glyph glyph-name="oacute" unicode="&#xf3;" horiz-adv-x="370" 
d="M345 251q0 -135 -43.5 -197t-116.5 -62t-116.5 62t-43.5 197t43.5 197t116.5 62t116.5 -62t43.5 -197zM221 251q0 76 -3.5 113.5t-10.5 49.5t-22 12t-22 -12t-10.5 -49.5t-3.5 -113.5t3.5 -113.5t10.5 -49.5t22 -12t22 12t10.5 49.5t3.5 113.5zM146 566l61 136h112
l-108 -136h-65z" />
    <glyph glyph-name="ocircumflex" unicode="&#xf4;" horiz-adv-x="370" 
d="M345 251q0 -135 -43.5 -197t-116.5 -62t-116.5 62t-43.5 197t43.5 197t116.5 62t116.5 -62t43.5 -197zM221 251q0 76 -3.5 113.5t-10.5 49.5t-22 12t-22 -12t-10.5 -49.5t-3.5 -113.5t3.5 -113.5t10.5 -49.5t22 -12t22 12t10.5 49.5t3.5 113.5zM54 566l88 124h86l88 -124
h-99l-33 65l-31 -65h-99z" />
    <glyph glyph-name="otilde" unicode="&#xf5;" horiz-adv-x="370" 
d="M345 251q0 -135 -43.5 -197t-116.5 -62t-116.5 62t-43.5 197t43.5 197t116.5 62t116.5 -62t43.5 -197zM221 251q0 76 -3.5 113.5t-10.5 49.5t-22 12t-22 -12t-10.5 -49.5t-3.5 -113.5t3.5 -113.5t10.5 -49.5t22 -12t22 12t10.5 49.5t3.5 113.5zM104 583l-50 10
q14 38 31.5 56t53.5 18q13 0 49 -8.5t50 -8.5q20 0 27 17l51 -10q-12 -73 -89 -73q-20 0 -51.5 8.5t-39.5 8.5q-21 0 -32 -18z" />
    <glyph glyph-name="odieresis" unicode="&#xf6;" horiz-adv-x="370" 
d="M345 251q0 -135 -43.5 -197t-116.5 -62t-116.5 62t-43.5 197t43.5 197t116.5 62t116.5 -62t43.5 -197zM221 251q0 76 -3.5 113.5t-10.5 49.5t-22 12t-22 -12t-10.5 -49.5t-3.5 -113.5t3.5 -113.5t10.5 -49.5t22 -12t22 12t10.5 49.5t3.5 113.5zM54 566v104h104v-104h-104
zM212 566v104h104v-104h-104z" />
    <glyph glyph-name="divide" unicode="&#xf7;" horiz-adv-x="600" 
d="M47 205v96h506v-96h-506zM218 461q0 33 23.5 56.5t56.5 23.5t56.5 -23.5t23.5 -56.5t-23.5 -56.5t-56.5 -23.5t-56.5 23.5t-23.5 56.5zM220 45q0 33 23.5 56.5t56.5 23.5t56.5 -23.5t23.5 -56.5t-23.5 -56.5t-56.5 -23.5t-56.5 23.5t-23.5 56.5z" />
    <glyph glyph-name="oslash" unicode="&#xf8;" horiz-adv-x="370" 
d="M151 234l68 112q-3 49 -10.5 64.5t-23.5 15.5q-15 0 -22 -12t-10.5 -49.5t-3.5 -113.5v-17h2zM219 274l-68 -112q3 -53 10.5 -69.5t23.5 -16.5q15 0 22 12t10.5 49.5t3.5 113.5v23h-2zM9 17l43 67q-27 64 -27 167q0 135 43.5 197t116.5 62q67 0 108 -50l34 53l34 -22
l-45 -70q29 -64 29 -170q0 -135 -43.5 -197t-116.5 -62q-70 0 -110 53l-33 -51z" />
    <glyph glyph-name="ugrave" unicode="&#xf9;" horiz-adv-x="354" 
d="M329 502v-502h-116v48h-2q-54 -56 -100 -56q-40 0 -63 28.5t-23 75.5v406h116v-364q0 -50 33 -50q24 0 39 19v395h116zM151 566l-108 136h112l61 -136h-65z" />
    <glyph glyph-name="uacute" unicode="&#xfa;" horiz-adv-x="354" 
d="M329 502v-502h-116v48h-2q-54 -56 -100 -56q-40 0 -63 28.5t-23 75.5v406h116v-364q0 -50 33 -50q24 0 39 19v395h116zM138 566l61 136h112l-108 -136h-65z" />
    <glyph glyph-name="ucircumflex" unicode="&#xfb;" horiz-adv-x="354" 
d="M329 502v-502h-116v48h-2q-54 -56 -100 -56q-40 0 -63 28.5t-23 75.5v406h116v-364q0 -50 33 -50q24 0 39 19v395h116zM46 566l88 124h86l88 -124h-99l-33 65l-31 -65h-99z" />
    <glyph glyph-name="udieresis" unicode="&#xfc;" horiz-adv-x="354" 
d="M329 502v-502h-116v48h-2q-54 -56 -100 -56q-40 0 -63 28.5t-23 75.5v406h116v-364q0 -50 33 -50q24 0 39 19v395h116zM46 566v104h104v-104h-104zM204 566v104h104v-104h-104z" />
    <glyph glyph-name="yacute" unicode="&#xfd;" horiz-adv-x="314" 
d="M308 502l-92 -494q-16 -88 -54 -123t-115 -35q-14 0 -42 4v94q17 -2 49 -2q27 0 41.5 16.5t14.5 43.5q0 17 -5 37l-96 459h111l51 -264h2l41 264h94zM118 566l61 136h112l-108 -136h-65z" />
    <glyph glyph-name="thorn" unicode="&#xfe;" horiz-adv-x="370" 
d="M141 712v-250h2q15 17 23.5 25t25.5 15.5t39 7.5q61 0 87.5 -66t26.5 -194q0 -258 -124 -258q-46 0 -73 36h-2v-178h-116v862h111zM146 410v-324q9 -16 32 -16q18 0 26.5 12t12.5 49.5t4 117.5q0 115 -7 146t-33 31q-24 0 -35 -16z" />
    <glyph glyph-name="ydieresis" unicode="&#xff;" horiz-adv-x="314" 
d="M308 502l-92 -494q-16 -88 -54 -123t-115 -35q-14 0 -42 4v94q17 -2 49 -2q27 0 41.5 16.5t14.5 43.5q0 17 -5 37l-96 459h111l51 -264h2l41 264h94zM26 566v104h104v-104h-104zM184 566v104h104v-104h-104z" />
    <glyph glyph-name="dotlessi" unicode="&#x131;" horiz-adv-x="166" 
d="M25 0v502h116v-502h-116z" />
    <glyph glyph-name="Lslash" unicode="&#x141;" 
d="M42 0v264l-62 -46v89l62 46v359h130v-262l114 85v-89l-114 -85v-251h166v-110h-296z" />
    <glyph glyph-name="lslash" unicode="&#x142;" horiz-adv-x="166" 
d="M25 0v271l-45 -45v93l45 45v348h116v-247l45 45v-92l-45 -45v-373h-116z" />
    <glyph glyph-name="OE" unicode="&#x152;" horiz-adv-x="574" 
d="M526 420v-116h-120v-194h168v-110h-286q-6 0 -30 -7q-30 -7 -45 -7q-92 0 -141 84.5t-49 285.5t49 285.5t141 84.5q30 0 51 -7q4 -1 10 -3t10 -3t7 -1h279v-110h-164v-182h120zM165 356q0 -146 10 -203t38 -57q32 0 41.5 55t9.5 205q0 111 -5.5 168t-15.5 74.5t-30 17.5
q-17 0 -26.5 -17t-15.5 -75.5t-6 -167.5z" />
    <glyph glyph-name="oe" unicode="&#x153;" horiz-adv-x="556" 
d="M455 157l81 -24q-12 -70 -50.5 -105.5t-98.5 -35.5q-51 0 -99 43q-34 -43 -103 -43q-73 0 -116.5 62t-43.5 197t43.5 197t116.5 62q63 0 105 -42q42 42 97 42t89.5 -41.5t46 -92.5t11.5 -110v-51h-187v-22q0 -105 48 -105q20 0 32.5 12t16.5 22t11 35zM149 251
q0 -76 3.5 -113.5t10.5 -49.5t22 -12q16 0 23.5 12t11 49t3.5 114t-3.5 114t-11 49t-23.5 12q-15 0 -22 -12t-10.5 -49.5t-3.5 -113.5zM347 305h77v14q0 55 -8.5 78t-29.5 23t-30 -22.5t-9 -78.5v-14z" />
    <glyph glyph-name="Scaron" unicode="&#x160;" horiz-adv-x="370" 
d="M15 206h116q0 -22 1 -35.5t5.5 -33.5t17 -30.5t32.5 -10.5q29 0 43.5 21.5t14.5 47.5q0 35 -24.5 66t-59 58t-69 58t-59 79t-24.5 106q0 84 44 139t124 55q160 0 165 -217h-116q0 22 -1 35t-5.5 32.5t-16 29.5t-29.5 10q-23 0 -36 -17.5t-13 -47.5q0 -33 24.5 -64
t59 -59.5t69 -60.5t59 -80t24.5 -105q0 -85 -47 -140.5t-132 -55.5q-50 0 -84.5 20t-51.5 54t-24 69.5t-7 76.5zM142 750l-88 124h99l31 -65l33 65h99l-88 -124h-86z" />
    <glyph glyph-name="scaron" unicode="&#x161;" horiz-adv-x="316" 
d="M286 376l-84 -14q-2 19 -6 31t-15 22.5t-30 10.5q-16 0 -25.5 -13t-9.5 -30q0 -22 19.5 -41.5t47 -36t55 -36.5t47 -53.5t19.5 -75.5q0 -66 -40.5 -107t-107.5 -41q-128 0 -144 146l91 14q6 -42 18 -59t40 -17q18 0 28.5 11.5t10.5 29.5q0 21 -18.5 39.5t-45 35.5t-53 38
t-45 57.5t-18.5 83.5q0 60 39 99.5t99 39.5q58 0 90 -37t38 -97zM115 566l-88 124h99l31 -65l33 65h99l-88 -124h-86z" />
    <glyph glyph-name="Ydieresis" unicode="&#x178;" horiz-adv-x="334" 
d="M102 0v275l-119 437h129l62 -279h2l66 279h109l-119 -425v-287h-130zM36 750v104h104v-104h-104zM194 750v104h104v-104h-104z" />
    <glyph glyph-name="Zcaron" unicode="&#x17d;" horiz-adv-x="315" 
d="M2 0v73l164 529h-150v110h297v-66l-169 -536h164v-110h-306zM115 750l-88 124h99l31 -65l33 65h99l-88 -124h-86z" />
    <glyph glyph-name="zcaron" unicode="&#x17e;" horiz-adv-x="296" 
d="M20 412v90h270v-67l-155 -345h152v-90h-281v70l152 342h-138zM105 566l-88 124h99l31 -65l33 65h99l-88 -124h-86z" />
    <glyph glyph-name="florin" unicode="&#x192;" horiz-adv-x="388" 
d="M64 365v54h84l14 165q7 80 41 108t103 28q26 0 54 -5v-97q-24 6 -37 6q-42 0 -46 -58l-13 -147h79v-54h-84l-29 -370q-7 -82 -39 -113.5t-98 -31.5q-28 0 -65 5v96q19 -5 41 -5q39 0 46 72l29 347h-80z" />
    <glyph glyph-name="circumflex" unicode="&#x2c6;" horiz-adv-x="166" 
d="M-48 566l88 124h86l88 -124h-99l-33 65l-31 -65h-99z" />
    <glyph glyph-name="caron" unicode="&#x2c7;" horiz-adv-x="166" 
d="M40 566l-88 124h99l31 -65l33 65h99l-88 -124h-86z" />
    <glyph glyph-name="uni02C9" unicode="&#x2c9;" horiz-adv-x="166" 
d="M-42 595v66h250v-66h-250z" />
    <glyph glyph-name="breve" unicode="&#x2d8;" horiz-adv-x="166" 
d="M-28 674h56q10 -38 56 -38q40 0 54 38h56q-10 -45 -38.5 -72.5t-73.5 -27.5q-90 0 -110 100z" />
    <glyph glyph-name="dotaccent" unicode="&#x2d9;" horiz-adv-x="166" 
d="M31 566v104h104v-104h-104z" />
    <glyph glyph-name="ring" unicode="&#x2da;" horiz-adv-x="166" 
d="M8 622q0 31 22 53t53 22t53 -22t22 -53t-22 -53t-53 -22t-53 22t-22 53zM50 622q0 -14 10 -23.5t23 -9.5t23 9.5t10 23.5t-10 23.5t-23 9.5t-23 -9.5t-10 -23.5z" />
    <glyph glyph-name="ogonek" unicode="&#x2db;" horiz-adv-x="166" 
d="M132 -97v-47q-24 -6 -51 -6q-42 0 -67 18.5t-25 52.5q0 19 15 36t30 26.5t42 23.5h61q-76 -53 -76 -80q0 -13 10 -21t21 -8q23 0 40 5z" />
    <glyph glyph-name="tilde" unicode="&#x2dc;" horiz-adv-x="166" 
d="M2 583l-50 10q14 38 31.5 56t53.5 18q13 0 49 -8.5t50 -8.5q20 0 27 17l51 -10q-12 -73 -89 -73q-20 0 -51.5 8.5t-39.5 8.5q-21 0 -32 -18z" />
    <glyph glyph-name="hungarumlaut" unicode="&#x2dd;" horiz-adv-x="166" 
d="M-38 566l61 136h112l-108 -136h-65zM104 566l61 136h112l-108 -136h-65z" />
    <glyph glyph-name="uni03A9" unicode="&#x3a9;" horiz-adv-x="474" 
d="M112 96v3q-79 126 -79 293q0 137 57 228.5t150 91.5q65 0 111.5 -49t66 -116.5t19.5 -143.5q0 -88 -23 -169.5t-56 -134.5v-3h90v-96h-181v69q26 32 44.5 111.5t18.5 192.5q0 102 -23 169.5t-70 67.5t-72 -66t-25 -175q0 -105 19 -187t44 -113v-69h-181v96h90z" />
    <glyph glyph-name="uni03BC" unicode="&#x3bc;" horiz-adv-x="354" 
d="M25 -150v652h116v-375q0 -18 9 -28.5t20 -10.5q16 0 29.5 8t13.5 17v389h116v-502h-116v50h-2q-23 -50 -70 -50v-150h-116z" />
    <glyph glyph-name="pi" unicode="&#x3c0;" horiz-adv-x="442" 
d="M424 425h-48v-295q0 -80 10 -130h-100q-14 32 -14 130v295h-88q-11 -264 -48 -425h-100q20 91 32 214t13 211q-40 0 -63 -7l-12 79q36 32 124 32h300z" />
    <glyph glyph-name="endash" unicode="&#x2013;" horiz-adv-x="500" 
d="M0 222v96h500v-96h-500z" />
    <glyph glyph-name="emdash" unicode="&#x2014;" horiz-adv-x="1000" 
d="M0 222v96h1000v-96h-1000z" />
    <glyph glyph-name="quoteleft" unicode="&#x2018;" horiz-adv-x="186" 
d="M28 432v120l77 160h52l-47 -150h48v-130h-130z" />
    <glyph glyph-name="quoteright" unicode="&#x2019;" horiz-adv-x="186" 
d="M28 582v130h130v-120l-77 -160h-52l47 150h-48z" />
    <glyph glyph-name="quotesinglbase" unicode="&#x201a;" horiz-adv-x="186" 
d="M28 0v130h130v-120l-77 -160h-52l47 150h-48z" />
    <glyph glyph-name="quotedblleft" unicode="&#x201c;" horiz-adv-x="370" 
d="M212 432v120l77 160h52l-47 -150h48v-130h-130zM28 432v120l77 160h52l-47 -150h48v-130h-130z" />
    <glyph glyph-name="quotedblright" unicode="&#x201d;" horiz-adv-x="370" 
d="M28 582v130h130v-120l-77 -160h-52l47 150h-48zM212 582v130h130v-120l-77 -160h-52l47 150h-48z" />
    <glyph glyph-name="quotedblbase" unicode="&#x201e;" horiz-adv-x="370" 
d="M212 0v130h130v-120l-77 -160h-52l47 150h-48zM28 0v130h130v-120l-77 -160h-52l47 150h-48z" />
    <glyph glyph-name="dagger" unicode="&#x2020;" horiz-adv-x="592" 
d="M254 -34v476h-44q-97 0 -173 -13v104q76 -13 173 -13h44v132q0 41 -12 84h108q-12 -43 -12 -84v-132h44q97 0 173 13v-104q-76 13 -173 13h-44v-476q0 -64 16 -116h-116q16 52 16 116z" />
    <glyph glyph-name="daggerdbl" unicode="&#x2021;" horiz-adv-x="592" 
d="M254 130v332h-44q-97 0 -173 -13v104q76 -13 173 -13h44v108q0 36 -12 88h108q-12 -48 -12 -88v-108h44q97 0 173 13v-104q-76 13 -173 13h-44v-332h44q97 0 173 13v-104q-76 13 -173 13h-44v-86q0 -64 16 -116h-116q16 52 16 116v86h-44q-97 0 -173 -13v104
q76 -13 173 -13h44z" />
    <glyph glyph-name="bullet" unicode="&#x2022;" horiz-adv-x="500" 
d="M72 356q0 74 52 126t126 52t126 -52t52 -126t-52 -126t-126 -52t-126 52t-52 126z" />
    <glyph glyph-name="ellipsis" unicode="&#x2026;" horiz-adv-x="1000" 
d="M102 0v130h130v-130h-130zM435 0v130h130v-130h-130zM768 0v130h130v-130h-130z" />
    <glyph glyph-name="perthousand" unicode="&#x2030;" horiz-adv-x="667" 
d="M101 666q-23 0 -23 -129q1 -128 24 -128t24 128q0 72 -5.5 100.5t-19.5 28.5zM18 515v45q0 157 84 160q84 -3 84 -160v-45q0 -157 -84 -160q-84 3 -84 160zM361 303q-23 0 -23 -129q1 -128 24 -128t24 128q0 72 -5.5 100.5t-19.5 28.5zM278 152v45q0 157 84 160
q84 -3 84 -160v-45q0 -157 -84 -160q-84 3 -84 160zM564 303q-23 0 -23 -129q1 -128 24 -128t24 128q0 72 -5.5 100.5t-19.5 28.5zM481 152v45q0 157 84 160q84 -3 84 -160v-45q0 -157 -84 -160q-84 3 -84 160zM77 0l233 711h74l-231 -711h-76z" />
    <glyph glyph-name="guilsinglleft" unicode="&#x2039;" horiz-adv-x="166" 
d="M82 110l-54 156l54 164h56l-39 -164l39 -156h-56z" />
    <glyph glyph-name="guilsinglright" unicode="&#x203a;" horiz-adv-x="166" 
d="M138 266l-54 -156h-56l39 156l-39 164h56z" />
    <glyph glyph-name="fraction" unicode="&#x2044;" horiz-adv-x="168" 
d="M-78 -14l245 740h79l-243 -740h-81z" />
    <glyph glyph-name="Euro" unicode="&#x20ac;" horiz-adv-x="388" 
d="M356 695v-103q-25 25 -78 25q-42 0 -64.5 -34t-26.5 -108h146l-22 -86h-130q-1 -10 -1 -30q0 -24 1 -33h112l-22 -86h-84q8 -147 91 -147q53 0 78 25v-106q-25 -19 -99 -19q-77 0 -122 59t-57 188h-62l22 86h32q-2 16 -2 32q0 9 2 31h-54l22 86h38q22 244 182 244
q70 0 98 -24z" />
    <glyph glyph-name="afii61289" unicode="&#x2113;" horiz-adv-x="373" 
d="M324 162l40 -44q-50 -123 -146 -123q-75 0 -107.5 49t-32.5 126v13q-3 -3 -11.5 -11t-15.5 -15t-12 -13l-24 61q45 45 63 70v265q0 115 39.5 175.5t99.5 60.5q48 0 72.5 -45.5t24.5 -124.5q0 -159 -133 -336v-63q0 -123 60 -123q41 0 83 78zM181 518v-138q77 127 77 236
q0 39 -8 56.5t-28 17.5q-41 0 -41 -172z" />
    <glyph glyph-name="trademark" unicode="&#x2122;" horiz-adv-x="851" 
d="M381 300v412h136l72 -272h2l72 272h135v-412h-90v302h-2l-82 -302h-69l-82 302h-2v-302h-90zM143 300v334h-90v78h276v-78h-90v-334h-96z" />
    <glyph glyph-name="Omega" unicode="&#x2126;" horiz-adv-x="474" 
d="M112 96v3q-79 126 -79 293q0 137 57 228.5t150 91.5q65 0 111.5 -49t66 -116.5t19.5 -143.5q0 -88 -23 -169.5t-56 -134.5v-3h90v-96h-181v69q26 32 44.5 111.5t18.5 192.5q0 102 -23 169.5t-70 67.5t-72 -66t-25 -175q0 -105 19 -187t44 -113v-69h-181v96h90z" />
    <glyph glyph-name="estimated" unicode="&#x212e;" horiz-adv-x="878" 
d="M843 346h-655q-5 0 -5 -4v-199q0 -12 8 -22q105 -108 248 -108q156 0 261 121h58q-55 -65 -139.5 -103t-180.5 -38q-167 0 -285.5 106t-118.5 257t118.5 257.5t285.5 106.5q168 0 286.5 -106.5t118.5 -257.5v-10zM694 372v199q0 14 -10 24q-105 103 -245 103
q-142 0 -247 -107q-9 -9 -9 -24v-195q0 -7 5 -7h502q4 0 4 7z" />
    <glyph glyph-name="partialdiff" unicode="&#x2202;" horiz-adv-x="430" 
d="M82 654l-27 94q59 52 132 52q84 0 143 -93t59 -282q0 -209 -53 -318t-153 -109q-69 0 -109.5 67.5t-40.5 164.5q0 123 48.5 196t114.5 73q32 0 55.5 -16.5t33.5 -37.5h1v29q0 90 -31.5 159t-82.5 69q-46 0 -90 -48zM193 99h1q35 0 57.5 72t27.5 167q-6 26 -23 45t-42 19
q-34 0 -55.5 -54t-21.5 -126q0 -56 14.5 -89.5t41.5 -33.5z" />
    <glyph glyph-name="Delta" unicode="&#x2206;" horiz-adv-x="471" 
d="M22 0v69l156 646h123l146 -643v-72h-425zM126 94h216l-65 279q-5 28 -20.5 94.5t-19.5 90.5h-1q-3 -23 -18 -83t-20 -90z" />
    <glyph glyph-name="product" unicode="&#x220f;" horiz-adv-x="537" 
d="M512 594h-66v-691h-107v691h-142v-691h-107v691h-66v109h488v-109z" />
    <glyph glyph-name="summation" unicode="&#x2211;" horiz-adv-x="406" 
d="M390 -97h-368v81l173 322l-170 313v84h353v-96h-218v-4l151 -272l-173 -313v-3h252v-112z" />
    <glyph glyph-name="minus" unicode="&#x2212;" horiz-adv-x="600" 
d="M47 205v96h506v-96h-506z" />
    <glyph glyph-name="uni2215" unicode="&#x2215;" horiz-adv-x="168" 
d="M-78 -14l245 740h79l-243 -740h-81z" />
    <glyph glyph-name="uni2219" unicode="&#x2219;" horiz-adv-x="194" 
d="M17 284q0 33 23.5 56.5t56.5 23.5t56.5 -23.5t23.5 -56.5t-23.5 -56.5t-56.5 -23.5t-56.5 23.5t-23.5 56.5z" />
    <glyph glyph-name="radical" unicode="&#x221a;" horiz-adv-x="456" 
d="M451 848l-162 -983h-84l-105 440l-56 -23l-16 69l139 55l64 -288q2 -17 5 -36.5t6 -38t4 -24.5l1 -1q7 79 12 105l121 725h71z" />
    <glyph glyph-name="infinity" unicode="&#x221e;" horiz-adv-x="655" 
d="M614 291v-1q0 -68 -40.5 -109t-95.5 -41q-41 0 -75.5 20t-73.5 74q-73 -94 -156 -94q-54 0 -94 41t-40 105q0 65 40 106.5t101 41.5q79 0 150 -92q1 1 10.5 11.5t11.5 13t11.5 12t13.5 12.5t13.5 11t15.5 11l16 8t19 7t20 4t22 2q56 0 93.5 -39.5t37.5 -103.5zM181 202h1
q22 0 43.5 12.5t34.5 26.5t35 41q-24 34 -35 47.5t-34 28.5t-48 15q-36 0 -56 -24.5t-20 -63.5q1 -35 23.5 -59t55.5 -24zM477 373h-2q-10 0 -20 -2.5t-20 -9t-17 -11.5t-16.5 -15t-14 -15t-14 -16.5t-11.5 -14.5q39 -51 62.5 -69t55.5 -18t52 26.5t20 56.5q0 38 -20.5 63
t-54.5 25z" />
    <glyph glyph-name="integral" unicode="&#x222b;" horiz-adv-x="342" 
d="M309 860l-11 -84q-14 6 -25 6q-22 0 -37 -25q-20 -33 -20 -170q0 -80 5 -237t5 -250q0 -145 -28 -204q-30 -68 -110 -68q-36 0 -58 13l14 87q19 -8 29 -8q21 0 33 20q16 32 16 156q0 94 -5 255t-5 246q0 89 11 140t37 85q34 47 100 47q26 0 49 -9z" />
    <glyph glyph-name="approxequal" unicode="&#x2248;" horiz-adv-x="414" 
d="M345 431l39 -31q-15 -42 -43 -69t-62 -27q-35 0 -82 33q-42 31 -65 31q-15 0 -28 -10.5t-19 -21t-16 -31.5l-40 31q16 42 45 68t65 26q9 0 18.5 -2t16 -4t14.5 -6t12 -6.5t11 -7t9 -5.5q47 -31 63 -31q20 0 33.5 15.5t28.5 47.5zM345 272l39 -32q-15 -41 -43 -68t-62 -27
q-35 0 -82 33q-41 31 -65 31q-15 0 -28 -11t-18.5 -21t-16.5 -32l-40 31q17 43 45.5 69t64.5 26q11 0 21.5 -2t19.5 -6t15 -7.5t14.5 -9t10.5 -6.5q6 -4 17.5 -11.5t17 -11t13.5 -6.5t15 -3q20 0 33 16t29 48z" />
    <glyph glyph-name="notequal" unicode="&#x2260;" horiz-adv-x="414" 
d="M308 480l-29 -72h96v-67h-117l-45 -114h162v-66h-183l-35 -89l-50 17l29 72h-99v66h120l45 114h-165v67h185l36 89z" />
    <glyph glyph-name="lessequal" unicode="&#x2264;" horiz-adv-x="414" 
d="M372 105l-330 198v71l330 198v-80l-271 -152v-2l271 -153v-80zM377 2h-338v69h338v-69z" />
    <glyph glyph-name="greaterequal" unicode="&#x2265;" horiz-adv-x="414" 
d="M45 572l330 -198v-71l-330 -198v80l271 153v2l-271 152v80zM377 2h-337v69h337v-69z" />
    <glyph glyph-name="lozenge" unicode="&#x25ca;" horiz-adv-x="454" 
d="M414 351l-146 -392h-90l-137 392l146 393h90zM318 349l-71 219q-9 28 -15 73h-4q-10 -53 -16 -73l-75 -214l73 -226q9 -33 13 -68h5q4 32 13 66z" />
    </font>
</defs>
</svg>
